<svg width="20" height="20" viewBox="0 0 20 20" fill="none"
    xmlns="http://www.w3.org/2000/svg">
    <path fill-rule="evenodd" clip-rule="evenodd" d="M18.4243 8.80039C18.4243 12.8873 15.1112 16.2004 11.0243 16.2004C6.93735 16.2004 3.62426 12.8873 3.62426 8.80039C3.62426 4.71348 6.93735 1.40039 11.0243 1.40039C15.1112 1.40039 18.4243 4.71348 18.4243 8.80039ZM19.4243 8.80039C19.4243 13.4396 15.6634 17.2004 11.0243 17.2004C8.88458 17.2004 6.93176 16.4004 5.44858 15.0832L1.17781 19.3539L0.470703 18.6468L4.74147 14.3761C3.42426 12.8929 2.62426 10.9401 2.62426 8.80039C2.62426 4.1612 6.38506 0.400391 11.0243 0.400391C15.6634 0.400391 19.4243 4.1612 19.4243 8.80039Z" fill="#515151"/>
</svg>
